<svg width="220" height="220" xmlns="http://www.w3.org/2000/svg">
 <!-- Created with Method Draw - http://github.com/duopixel/Method-Draw/ -->

 <g>
  <title>background</title>
  <rect fill="#fff" id="canvas_background" height="222" width="222" y="-1" x="-1"/>
  <g display="none" overflow="visible" y="0" x="0" height="100%" width="100%" id="canvasGrid">
   <rect fill="url(#gridpattern)" stroke-width="0" y="0" x="0" height="100%" width="100%"/>
  </g>
 </g>
 <g>
  <title>Layer 1</title>
  <g id="svg_7">
   <g transform="matrix(7.111111534966369,0,0,7.111111534966369,0,0) " id="svg_4">
    <path id="svg_6" fill-rule="evenodd" fill="rgb(9.411765%,8.627451%,8.627451%)" d="m15.800209,0.579932c-8.30078,0 -15,6.69922 -15,15c0,6.60156 4.30078,12.19922 10.30078,14.19922c0.80078,0.10156 1,-0.30078 1,-0.69922l0,-2.60156c-4.19922,0.90234 -5.10156,-2 -5.10156,-2c-0.69922,-1.69922 -1.69922,-2.19922 -1.69922,-2.19922c-1.39844,-0.89844 0.10156,-0.89844 0.10156,-0.89844c1.5,0.09766 2.29688,1.5 2.29688,1.5c1.30078,2.30078 3.5,1.59766 4.40234,1.19922c0.09766,-1 0.5,-1.60156 1,-2c-3.30078,-0.39844 -6.80078,-1.69922 -6.80078,-7.39844c0,-1.60156 0.60156,-3 1.5,-4c-0.19922,-0.40234 -0.69922,-1.90234 0.10156,-4c0,0 1.29688,-0.40234 4.09766,1.5c1.19922,-0.30078 2.5,-0.5 3.80078,-0.5c1.30078,0 2.60156,0.19922 3.80078,0.5c2.89844,-1.90234 4.09766,-1.5 4.09766,-1.5c0.80078,2.09766 0.30078,3.59766 0.10156,4c1,1 1.5,2.39844 1.5,4c0,5.79688 -3.5,7 -6.80078,7.39844c0.5,0.5 1,1.39844 1,2.80078l0,4.09766c0,0.40234 0.30078,0.90234 1,0.70312c6,-2 10.19922,-7.60156 10.19922,-14.20312c0.10156,-8.19922 -6.59766,-14.89844 -14.89844,-14.89844zm0,0"/>
   </g>
  </g>
 </g>
</svg>